# xmcd CD database file
#
# Track frame offsets:
#	150
#	13560
#	26558
#	40577
#	51312
#	62413
#	73708
#	85964
#	98461
#	111397
#	124689
#	138293
#	149689
#	162446
#	175373
#	188531
#	202258
#	215497
#	229677
#	241052
#	254150
#	267317
#	280712
#	293961
#	307106
#
# Disc length: 4274 seconds
#
# Revision: 0
# Processed by: cddbd v1.5.2PL0 Copyright (c) Steve Scherf et al.
# Submitted via: CDex 1.51
#
DISCID=7810b019
DTITLE=Nat King Cole - The Essence of [CD 2)
DYEAR=2006
DGENRE=Jazz
TTITLE0=Funny (not much)
TTITLE1=Somewhere along the way
TTITLE2=Haiji Baba (Persian lament)
TTITLE3=Don't let your eyes go shopping (for your heart)
TTITLE4=Strange
TTITLE5=Lover come back tome
TTITLE6=Pretend
TTITLE7=If love is good to me
TTITLE8=Why?
TTITLE9=Return to paradise
TTITLE10=I am in love
TTITLE11=The sand and the sea
TTITLE12=Darling je vous aime beaucoup
TTITLE13=Smile
TTITLE14=Alone too long
TTITLE15=Unbelievable
TTITLE16=Tenderly
TTITLE17=It happens to me
TTITLE18=A blossom fell
TTITLE19=Someone you love
TTITLE20=Ask me
TTITLE21=My one sin (in life)
TTITLE22=Make her mine
TTITLE23=Answer me, my love
TTITLE24=Forgive my heart
EXTD=YEAR: 2006
EXTT0=
EXTT1=
EXTT2=
EXTT3=
EXTT4=
EXTT5=
EXTT6=
EXTT7=
EXTT8=
EXTT9=
EXTT10=
EXTT11=
EXTT12=
EXTT13=
EXTT14=
EXTT15=
EXTT16=
EXTT17=
EXTT18=
EXTT19=
EXTT20=
EXTT21=
EXTT22=
EXTT23=
EXTT24=
PLAYORDER=
